<mxfile host="app.diagrams.net" modified="2022-10-21T03:58:21.192Z" agent="5.0 (Windows NT 10.0; Win64; x64) AppleWebKit/537.36 (KHTML, like Gecko) Chrome/106.0.0.0 Safari/537.36" etag="aDqa_-T8tZu3bzjd3LXd" version="20.4.2" type="github">
  <diagram id="38vlmu5yILb_-6weRyr9" name="Page-1">
    <mxGraphModel dx="1422" dy="762" grid="1" gridSize="10" guides="1" tooltips="1" connect="1" arrows="1" fold="1" page="1" pageScale="1" pageWidth="850" pageHeight="1100" math="0" shadow="0">
      <root>
        <mxCell id="0" />
        <mxCell id="1" parent="0" />
        <mxCell id="A671sh1k3R_knXotuWo4-37" value="" style="rounded=0;whiteSpace=wrap;html=1;" vertex="1" parent="1">
          <mxGeometry x="40" y="425" width="650" height="250" as="geometry" />
        </mxCell>
        <mxCell id="A671sh1k3R_knXotuWo4-31" value="" style="group" vertex="1" connectable="0" parent="1">
          <mxGeometry x="40" width="650" height="400" as="geometry" />
        </mxCell>
        <mxCell id="A671sh1k3R_knXotuWo4-27" value="" style="rounded=0;whiteSpace=wrap;html=1;" vertex="1" parent="A671sh1k3R_knXotuWo4-31">
          <mxGeometry width="650" height="400" as="geometry" />
        </mxCell>
        <mxCell id="A671sh1k3R_knXotuWo4-5" value="AWS ECR/&amp;nbsp; Azure ACR/ etc." style="rounded=1;whiteSpace=wrap;html=1;" vertex="1" parent="A671sh1k3R_knXotuWo4-31">
          <mxGeometry x="443.1818181818182" y="290" width="118.18181818181819" height="60" as="geometry" />
        </mxCell>
        <mxCell id="A671sh1k3R_knXotuWo4-6" value="&#xa;&lt;span style=&quot;color: rgb(0, 0, 0); font-family: Helvetica; font-size: 12px; font-style: normal; font-variant-ligatures: normal; font-variant-caps: normal; font-weight: 400; letter-spacing: normal; orphans: 2; text-align: center; text-indent: 0px; text-transform: none; widows: 2; word-spacing: 0px; -webkit-text-stroke-width: 0px; background-color: rgb(248, 249, 250); text-decoration-thickness: initial; text-decoration-style: initial; text-decoration-color: initial; float: none; display: inline !important;&quot;&gt;Jenkins/ Github-actions/ AWS CodePipeline etc.&lt;/span&gt;&#xa;&#xa;" style="rounded=1;whiteSpace=wrap;html=1;" vertex="1" parent="A671sh1k3R_knXotuWo4-31">
          <mxGeometry x="177.27272727272728" y="160" width="118.18181818181819" height="70" as="geometry" />
        </mxCell>
        <mxCell id="A671sh1k3R_knXotuWo4-15" value="Hooks" style="edgeStyle=orthogonalEdgeStyle;rounded=0;orthogonalLoop=1;jettySize=auto;html=1;exitX=0.5;exitY=1;exitDx=0;exitDy=0;entryX=0;entryY=0.75;entryDx=0;entryDy=0;" edge="1" parent="A671sh1k3R_knXotuWo4-31" source="A671sh1k3R_knXotuWo4-7" target="A671sh1k3R_knXotuWo4-6">
          <mxGeometry relative="1" as="geometry" />
        </mxCell>
        <mxCell id="A671sh1k3R_knXotuWo4-7" value="&lt;br&gt;&lt;span style=&quot;color: rgb(0, 0, 0); font-family: Helvetica; font-size: 12px; font-style: normal; font-variant-ligatures: normal; font-variant-caps: normal; font-weight: 400; letter-spacing: normal; orphans: 2; text-align: center; text-indent: 0px; text-transform: none; widows: 2; word-spacing: 0px; -webkit-text-stroke-width: 0px; background-color: rgb(248, 249, 250); text-decoration-thickness: initial; text-decoration-style: initial; text-decoration-color: initial; float: none; display: inline !important;&quot;&gt;&lt;br&gt;SourceCode&lt;/span&gt;&lt;br style=&quot;color: rgb(0, 0, 0); font-family: Helvetica; font-size: 12px; font-style: normal; font-variant-ligatures: normal; font-variant-caps: normal; font-weight: 400; letter-spacing: normal; orphans: 2; text-align: center; text-indent: 0px; text-transform: none; widows: 2; word-spacing: 0px; -webkit-text-stroke-width: 0px; background-color: rgb(248, 249, 250); text-decoration-thickness: initial; text-decoration-style: initial; text-decoration-color: initial;&quot;&gt;&lt;span style=&quot;color: rgb(0, 0, 0); font-family: Helvetica; font-size: 12px; font-style: normal; font-variant-ligatures: normal; font-variant-caps: normal; font-weight: 400; letter-spacing: normal; orphans: 2; text-align: center; text-indent: 0px; text-transform: none; widows: 2; word-spacing: 0px; -webkit-text-stroke-width: 0px; background-color: rgb(248, 249, 250); text-decoration-thickness: initial; text-decoration-style: initial; text-decoration-color: initial; float: none; display: inline !important;&quot;&gt;BitBucket/github/etc. repo&lt;/span&gt;" style="rounded=1;whiteSpace=wrap;html=1;" vertex="1" parent="A671sh1k3R_knXotuWo4-31">
          <mxGeometry x="59.09090909090909" y="40" width="157.57575757575756" height="70" as="geometry" />
        </mxCell>
        <mxCell id="A671sh1k3R_knXotuWo4-9" style="edgeStyle=orthogonalEdgeStyle;rounded=0;orthogonalLoop=1;jettySize=auto;html=1;exitX=0.5;exitY=1;exitDx=0;exitDy=0;" edge="1" parent="A671sh1k3R_knXotuWo4-31" source="A671sh1k3R_knXotuWo4-7" target="A671sh1k3R_knXotuWo4-7">
          <mxGeometry relative="1" as="geometry" />
        </mxCell>
        <mxCell id="A671sh1k3R_knXotuWo4-24" value="Build Code, Run Tests, Create Image and push&lt;br&gt;to repository" style="edgeStyle=orthogonalEdgeStyle;rounded=0;orthogonalLoop=1;jettySize=auto;html=1;entryX=0;entryY=0.5;entryDx=0;entryDy=0;" edge="1" parent="A671sh1k3R_knXotuWo4-31" target="A671sh1k3R_knXotuWo4-5">
          <mxGeometry x="0.0174" relative="1" as="geometry">
            <mxPoint x="226.51515151515153" y="231" as="sourcePoint" />
            <mxPoint x="321.02121212121216" y="320" as="targetPoint" />
            <mxPoint as="offset" />
            <Array as="points">
              <mxPoint x="226.51515151515153" y="231" />
              <mxPoint x="226.51515151515153" y="320" />
              <mxPoint x="364.3939393939394" y="320" />
            </Array>
          </mxGeometry>
        </mxCell>
        <mxCell id="A671sh1k3R_knXotuWo4-28" value="&lt;h1&gt;&lt;span style=&quot;background-color: initial;&quot;&gt;Continous Integration&lt;/span&gt;&lt;br&gt;&lt;/h1&gt;" style="text;html=1;strokeColor=none;fillColor=none;spacing=5;spacingTop=-20;whiteSpace=wrap;overflow=hidden;rounded=0;" vertex="1" parent="A671sh1k3R_knXotuWo4-31">
          <mxGeometry x="295.45454545454544" y="20" width="187.12121212121212" height="120" as="geometry" />
        </mxCell>
        <mxCell id="A671sh1k3R_knXotuWo4-33" value="Create infrastructure in AWS/Azure using IAC" style="rounded=1;whiteSpace=wrap;html=1;" vertex="1" parent="1">
          <mxGeometry x="60" y="500" width="120" height="60" as="geometry" />
        </mxCell>
        <mxCell id="A671sh1k3R_knXotuWo4-34" value="Deploy to containers in&lt;br&gt;&amp;nbsp;AWS/Azure etc.&amp;nbsp;" style="rounded=1;whiteSpace=wrap;html=1;" vertex="1" parent="1">
          <mxGeometry x="230" y="560" width="120" height="60" as="geometry" />
        </mxCell>
        <mxCell id="A671sh1k3R_knXotuWo4-48" style="edgeStyle=orthogonalEdgeStyle;rounded=0;orthogonalLoop=1;jettySize=auto;html=1;exitX=1;exitY=0.5;exitDx=0;exitDy=0;entryX=0;entryY=0.5;entryDx=0;entryDy=0;" edge="1" parent="1" source="A671sh1k3R_knXotuWo4-35" target="A671sh1k3R_knXotuWo4-36">
          <mxGeometry relative="1" as="geometry" />
        </mxCell>
        <mxCell id="A671sh1k3R_knXotuWo4-35" value="Executes Tests" style="rounded=1;whiteSpace=wrap;html=1;" vertex="1" parent="1">
          <mxGeometry x="390" y="560" width="120" height="60" as="geometry" />
        </mxCell>
        <mxCell id="A671sh1k3R_knXotuWo4-36" value="Deploy to PROD&amp;nbsp;" style="rounded=1;whiteSpace=wrap;html=1;" vertex="1" parent="1">
          <mxGeometry x="550" y="560" width="120" height="60" as="geometry" />
        </mxCell>
        <mxCell id="A671sh1k3R_knXotuWo4-38" value="" style="endArrow=classic;html=1;rounded=0;entryX=0.5;entryY=1;entryDx=0;entryDy=0;" edge="1" parent="1" target="A671sh1k3R_knXotuWo4-33">
          <mxGeometry width="50" height="50" relative="1" as="geometry">
            <mxPoint x="120" y="610" as="sourcePoint" />
            <mxPoint x="170" y="560" as="targetPoint" />
          </mxGeometry>
        </mxCell>
        <mxCell id="A671sh1k3R_knXotuWo4-39" value="Pre-requisite infrastructure" style="text;html=1;strokeColor=none;fillColor=none;align=center;verticalAlign=middle;whiteSpace=wrap;rounded=0;" vertex="1" parent="1">
          <mxGeometry x="70" y="610" width="100" height="30" as="geometry" />
        </mxCell>
        <mxCell id="A671sh1k3R_knXotuWo4-40" value="&lt;h1&gt;&lt;span style=&quot;background-color: initial;&quot;&gt;Continous Deployment&lt;/span&gt;&lt;br&gt;&lt;/h1&gt;" style="text;html=1;strokeColor=none;fillColor=none;spacing=5;spacingTop=-20;whiteSpace=wrap;overflow=hidden;rounded=0;" vertex="1" parent="1">
          <mxGeometry x="50" y="450" width="310" height="70" as="geometry" />
        </mxCell>
        <mxCell id="A671sh1k3R_knXotuWo4-41" style="edgeStyle=orthogonalEdgeStyle;rounded=0;orthogonalLoop=1;jettySize=auto;html=1;exitX=0.5;exitY=1;exitDx=0;exitDy=0;" edge="1" parent="1" source="A671sh1k3R_knXotuWo4-40" target="A671sh1k3R_knXotuWo4-40">
          <mxGeometry relative="1" as="geometry" />
        </mxCell>
        <mxCell id="A671sh1k3R_knXotuWo4-44" value="" style="endArrow=classic;html=1;rounded=0;exitX=0.5;exitY=1;exitDx=0;exitDy=0;entryX=0.5;entryY=0;entryDx=0;entryDy=0;" edge="1" parent="1" source="A671sh1k3R_knXotuWo4-5" target="A671sh1k3R_knXotuWo4-34">
          <mxGeometry relative="1" as="geometry">
            <mxPoint x="360" y="330" as="sourcePoint" />
            <mxPoint x="460" y="330" as="targetPoint" />
            <Array as="points" />
          </mxGeometry>
        </mxCell>
        <mxCell id="A671sh1k3R_knXotuWo4-45" value="Passes the image details to be deployed" style="edgeLabel;resizable=0;html=1;align=center;verticalAlign=middle;" connectable="0" vertex="1" parent="A671sh1k3R_knXotuWo4-44">
          <mxGeometry relative="1" as="geometry">
            <mxPoint x="54" as="offset" />
          </mxGeometry>
        </mxCell>
        <mxCell id="A671sh1k3R_knXotuWo4-46" value="" style="endArrow=classic;html=1;rounded=0;exitX=1;exitY=0.5;exitDx=0;exitDy=0;entryX=0;entryY=0.5;entryDx=0;entryDy=0;" edge="1" parent="1" source="A671sh1k3R_knXotuWo4-34" target="A671sh1k3R_knXotuWo4-35">
          <mxGeometry width="50" height="50" relative="1" as="geometry">
            <mxPoint x="390" y="500" as="sourcePoint" />
            <mxPoint x="440" y="450" as="targetPoint" />
          </mxGeometry>
        </mxCell>
      </root>
    </mxGraphModel>
  </diagram>
</mxfile>
